<?xml version="1.0" encoding="UTF-8"?><svg xmlns="http://www.w3.org/2000/svg" width="2100" height="880" viewBox="0 0 2100 880"><rect width="100%" height="100%" fill="#FFFCF7"></rect><text x="1050" y="48" text-anchor="middle" font-family="Kalam" font-size="32" font-weight="400" fill="#57534E">field-ops path · read-side PO context · no buy-side agent</text><g><path d="M91.12293010430061 88.27075670884595 L384.4629472936845 92.5557473917779 L381.6661219056552 341.5918249576037 L93.81690388196148 342.557902696236" stroke="none" stroke-width="0" fill="#FFE8D6"></path><path d="M93.57251861786192 88.69950381694166 C164.61965913059865 92.546186692802, 238.957521299749 94.37000737492254, 381.30915999895024 91.6507571786759 M93.58926661582518 89.70897144504748 C151.79076154736197 85.58899207742814, 210.44476017558154 87.10231515258626, 382.5333575851002 89.49125012111388 M381.72762505766 89.52989673454813 C380.047777923205 174.55368251046076, 384.78824583432055 264.69148914009605, 384.8428729659228 339.5988461780206 M383.11913234719634 90.33362763556431 C384.79406899456484 178.05743493928225, 385.09288351453915 262.95078207416844, 381.6069124447072 339.3247393130612 M381.9453962073193 338.9217020519224 C273.1159653843062 342.8732268938192, 169.60103480034232 339.6893647070293, 92.73516153244093 342.4425836387604 M382.4954732217829 339.16170507343946 C269.6993335867551 339.5488572261172, 155.8232278037742 338.4105985693665, 93.0001809283469 340.13916564381276 M90.29125129075898 340.0307869718181 C89.27191946485439 243.68549231629632, 89.1102388437429 146.9482200403973, 91.06564067704292 89.41180994023 M91.13503687992706 339.06549781612375 C93.92371591958825 251.59998964479163, 93.37667330918951 165.45571856777602, 92.38954543478867 90.32792614203282" stroke="#C2410C" stroke-width="3" fill="none"></path></g><text x="237.5" y="155" text-anchor="middle" font-family="Kalam" font-size="36" font-weight="700" fill="#1C1917">Capture</text><text x="237.5" y="215" text-anchor="middle" font-family="Kalam" font-size="26" font-weight="400" fill="#57534E">Telegram</text><text x="237.5" y="253" text-anchor="middle" font-family="Kalam" font-size="26" font-weight="400" fill="#57534E">voice + photo</text><g><path d="M387.69209931891913 216.79175642750712 C392.4027438360501 214.76956102429662, 394.74957046258413 216.58222849930308, 412.93263218920356 217.65911274276564 M387.96238926904135 213.8886661696934 C394.4611107258703 214.90648301388413, 403.71848420721096 213.35512153419853, 414.8616183928706 214.02403632610682" stroke="#C2410C" stroke-width="2.6" fill="none"></path></g><g><path d="M401.19800770447705 222.4487877351423 C404.3570165890066 220.8884078721851, 405.442058088448 221.32582555336734, 412.6956839091105 215.8489395860609 M401.75359195618995 223.786848784031 C402.96123583079714 221.9026201971843, 406.68078464124545 219.5682879950154, 413.5177037780026 214.19622870763254 M412.4682647504694 215.20721755640494 C409.99452800527627 212.33998211102437, 406.62664056689675 211.3638056488641, 400.4686601513166 206.3455930261087 M412.8472519262937 214.7483794000816 C409.85450156097414 212.0205755914358, 405.49116294689696 210.0600342196018, 401.38526007752364 206.3386835987645" stroke="#C2410C" stroke-width="2.3" fill="none"></path></g><g><path d="M414.8996452937774 88.50743319357318 L708.100674045798 93.30428419126324 L709.6374023146005 341.644859442469 L416.7860258372293 342.88561842317716" stroke="none" stroke-width="0" fill="#FFFFFF"></path><path d="M418.96537640019153 89.44925504204515 C532.159716195367 91.06791133800641, 643.6771643379262 92.10787822373612, 704.9970076182682 90.3303612478589 M417.82196680304816 91.10106381599805 C493.3369748228445 94.12814068625545, 567.5676554844799 93.86350314412567, 708.4174883706353 89.79758532032041 M709.488300080942 90.40782817367446 C707.1879878996965 181.8643609457348, 708.1631848949297 275.30065616651814, 710.193234728825 339.8866092048122 M707.4154615778173 89.84699652972203 C709.1820078391773 171.92033467898986, 708.9789261683374 255.02421719551015, 706.2346464066064 339.7774605194428 M707.4319806136456 338.08418767712385 C594.0553530830521 336.56035890952256, 482.38544959473046 338.65947281188267, 418.14096535141084 340.84436840530645 M707.5131355332985 339.14539300974445 C630.3581939229347 344.4162519519168, 555.2264679084968 343.40777892884114, 418.12332965765535 341.1874763629996 M415.2903196764582 339.1219583995066 C417.9026064990458 263.69518319142975, 416.90678465524906 186.1448293677498, 417.95114338102695 90.96381756214072 M416.849520707153 339.1084504401813 C414.50970628181057 252.47102307489558, 415.1706082735361 163.47140256966273, 416.8628228569334 89.04371291249518" stroke="#1C1917" stroke-width="3" fill="none"></path></g><text x="562.5" y="155" text-anchor="middle" font-family="Kalam" font-size="36" font-weight="700" fill="#1C1917">Gateway</text><text x="562.5" y="215" text-anchor="middle" font-family="Kalam" font-size="26" font-weight="400" fill="#57534E">project</text><text x="562.5" y="253" text-anchor="middle" font-family="Kalam" font-size="26" font-weight="400" fill="#57534E">session route</text><g><path d="M712.2812226075885 211.94431642873633 C724.332843957704 213.43161789481093, 734.4574724202624 216.91761852040824, 738.1910113581672 217.5404581397224 M710.3247226906589 214.59937834227313 C721.1726577010826 214.90145875144933, 730.740618312444 215.90544759039867, 736.9146837365104 214.23866688763798" stroke="#C2410C" stroke-width="2.6" fill="none"></path></g><g><path d="M727.5809559469894 221.92297982880606 C729.2072225371196 221.7165905720743, 729.8003563772447 221.22512984519474, 739.5816394718127 214.1816877919061 M725.8247179929939 223.60629564032604 C729.3502923919224 220.8376668221022, 732.9648634720405 219.1112039675062, 737.8376396177212 215.10034686386342 M737.3946277065788 215.91117083058057 C734.7944411528874 210.6715454180464, 730.7483509830778 208.40547381662122, 726.0654204487312 206.3480208924382 M738.6000190901283 214.65198528141443 C736.458126025523 212.69359080379166, 732.3433192880487 211.02952119171817, 725.8074702801302 206.000487289305" stroke="#C2410C" stroke-width="2.3" fill="none"></path></g><g><path d="M743.4764097013604 92.94720988508804 L1033.3783393199767 86.87359932070132 L1029.3142790243205 337.01917571560205 L744.1477551146925 338.8964086241062" stroke="none" stroke-width="0" fill="#FFFFFF"></path><path d="M742.3242696802241 89.21429192969116 C845.4646477509286 94.4244766023402, 944.5062775946496 96.65828666080345, 1031.6059488066885 91.06438033276221 M741.8534367671905 90.00882061509661 C805.4136812804104 89.25604388552523, 866.8460909948018 89.92807664314114, 1033.7704398270669 89.88681928828834 M1030.932341373378 91.9691945535267 C1029.7464511554022 150.59352073411986, 1025.9552799058558 215.5447901262154, 1031.4334954455744 340.71505198147315 M1031.9361230910913 91.06303987830513 C1035.8166818305713 170.79769071531618, 1035.6440625331752 254.4203269084557, 1032.9248085207992 339.9736267715965 M1030.9248599227506 340.141064182231 C969.8060375656055 335.5472410453942, 901.543291461658 334.7712883982662, 740.1100385928199 342.53425273668313 M1033.2785701072823 340.969319628563 C955.2143793132554 337.4559480833317, 878.8672421514289 336.3151259195216, 742.0131929824748 340.1535553154596 M740.1547531159588 341.7489925072758 C745.3412897400149 251.34781965578892, 741.6391815679618 163.48617553601522, 741.7610743801131 88.6260103695899 M742.7615045437366 340.4524203939248 C743.0092205129374 272.2390681085984, 743.1874395370069 205.95346252343765, 741.4014944991627 91.01286041467107" stroke="#1C1917" stroke-width="3" fill="none"></path></g><text x="887.5" y="155" text-anchor="middle" font-family="Kalam" font-size="36" font-weight="700" fill="#1C1917">Skills</text><text x="887.5" y="215" text-anchor="middle" font-family="Kalam" font-size="26" font-weight="400" fill="#57534E">transcribe</text><text x="887.5" y="253" text-anchor="middle" font-family="Kalam" font-size="26" font-weight="400" fill="#57534E">log · RFI draft</text><g><path d="M1037.36262090637 217.7502945821343 C1044.7164718681406 216.63949804454717, 1050.921290919635 213.9558997299256, 1064.9340666455594 216.17650701498943 M1036.646254489538 214.17422514874272 C1043.5464592487385 215.28966461895453, 1050.2651238843455 215.58778175021249, 1063.2893077392857 215.10617839930958" stroke="#C2410C" stroke-width="2.6" fill="none"></path></g><g><path d="M1050.94320281855 222.68636040069373 C1055.0477270898475 221.9747239346776, 1059.9220301572402 216.70285290789454, 1064.948386332291 215.16408852418982 M1050.6917568484096 223.14112482077516 C1054.7769458412445 219.93698468571807, 1059.8115422616445 218.22953304598715, 1063.0715925183154 214.627743798485 M1064.1781823866245 213.49176356810202 C1061.5815391406438 214.29417548377018, 1057.0615531656167 209.98114157181953, 1050.6331073880744 205.2622759536167 M1063.2970811171833 214.93644234853758 C1059.325995661534 212.6793611861528, 1053.8178035607377 209.24339228983683, 1051.4741065511269 206.8359308192839" stroke="#C2410C" stroke-width="2.3" fill="none"></path></g><g><path d="M1068.234150282444 90.57138917623821 L1358.2535436023932 89.60084953522282 L1360.1413853161423 341.86539842937873 L1069.1469411521991 342.68623301661626" stroke="none" stroke-width="0" fill="#FFFFFF"></path><path d="M1068.778980554455 87.49741059495013 C1128.0512350701747 92.82314638409926, 1186.6564351808945 93.92103409929149, 1358.8541287135672 88.52392156283376 M1067.8254279658977 89.4149041149233 C1174.058377826051 91.831597810558, 1279.8801061513075 90.93331033857218, 1356.6414990519538 89.92342867013765 M1359.262038069187 92.09538295200942 C1356.188894139055 172.4562758220621, 1354.5989263856634 251.17581038842556, 1356.5904850971858 339.8500415446573 M1356.1142005315212 91.07675821665264 C1354.2191920847224 149.55088876967955, 1353.5324002410844 209.64257149656547, 1358.1477005028987 339.5551637996824 M1355.7300508921667 338.6465956688219 C1290.7963968758418 341.9857232364792, 1223.9632077117762 344.9359060428742, 1065.573956483503 342.0786100110032 M1356.6731222867106 340.4559936518715 C1291.6911163285884 336.74037318995283, 1228.944102464635 335.1156100533058, 1066.7813839421162 341.05483621252915 M1066.41377198704 341.21926037301836 C1061.676759303249 254.70202903493808, 1062.3291860179436 168.35765493675243, 1068.5217324112195 87.50049600201382 M1068.8827941764373 339.0509302864839 C1068.5417465985108 285.40570687981165, 1068.9297601314856 229.91847472791486, 1067.4953208594866 89.9959867335922" stroke="#1C1917" stroke-width="3" fill="none"></path></g><text x="1212.5" y="155" text-anchor="middle" font-family="Kalam" font-size="36" font-weight="700" fill="#1C1917">Tools</text><text x="1212.5" y="215" text-anchor="middle" font-family="Kalam" font-size="26" font-weight="400" fill="#57534E">progress</text><text x="1212.5" y="253" text-anchor="middle" font-family="Kalam" font-size="26" font-weight="400" fill="#57534E">shortage notify</text><g><path d="M1362.2222515378594 215.78263562726912 C1366.9648059533527 216.09642199472222, 1374.8087345757035 215.81687433804615, 1386.3423295245614 216.124249320167 M1360.8046857624906 213.5994541316158 C1367.092158359804 214.21317222483464, 1374.5132285525995 214.22355182127302, 1389.2735294485815 215.09488336744226" stroke="#C2410C" stroke-width="2.6" fill="none"></path></g><g><path d="M1375.6836793067264 225.00212606154864 C1378.8181512467663 221.61727245971085, 1382.2945622671284 216.5963175202625, 1390.071459912769 215.47410983794353 M1375.4054003846763 224.04344592891053 C1379.3042364650496 221.8936916829413, 1381.5701808164745 219.83494491645027, 1388.3151408481779 214.35699215063516 M1389.0470465415783 215.48770625074582 C1383.978170117548 211.3879536252608, 1377.3768350156292 208.76299263452162, 1377.6588671351744 207.9089678731737 M1388.8986904269407 214.7003314745268 C1386.178866174472 212.52227912111994, 1382.5642430826078 210.74078093041064, 1375.9781556327146 206.2067244505208" stroke="#C2410C" stroke-width="2.3" fill="none"></path></g><g><path d="M1394.3287481532889 87.59998921421378 L1679.5951788517534 88.17208370251952 L1682.9753864883191 340.9202810554605 L1395.0621697438057 341.8657128728457" stroke="none" stroke-width="0" fill="#1C1917"></path><path d="M1392.5234683691185 89.20693522768103 C1478.980447997052 84.23304697970538, 1570.0680854638395 84.81541512070957, 1684.3339418617518 90.29934948621782 M1391.9109604977432 90.55009933172572 C1454.7691206143538 85.02534824832362, 1515.8982935356887 86.23162987012977, 1681.402831063701 90.43361932556844 M1682.2837388221603 88.06298278136912 C1683.9470528595677 174.41967791645533, 1682.764477338733 265.8917940206665, 1681.0516011298646 339.82732694387533 M1682.0365904233486 91.12017404433418 C1682.5569881271865 147.55469246189972, 1680.781822303941 206.1373387103122, 1683.230202074629 340.8697171543235 M1684.3756577974386 339.9551861616196 C1597.0475460824139 342.87487283384974, 1517.7931601428581 346.4727027340908, 1392.9726881328706 340.7300089547197 M1682.4980142236511 338.8694984586344 C1609.2423303333967 343.56631292946014, 1537.1746025623056 342.6090995633191, 1391.948375565461 339.03458753821707 M1391.5251299468412 339.43668777869755 C1394.3797974854765 270.1560709984538, 1392.6845831814885 202.35296377807407, 1391.2503535047197 87.56537689205979 M1392.5558597034926 340.8608967772632 C1389.9985172305464 247.8332473032618, 1389.554073901903 153.8720024229104, 1392.5437045891078 89.7169603479729" stroke="#1C1917" stroke-width="3" fill="none"></path></g><text x="1537.5" y="155" text-anchor="middle" font-family="Kalam" font-size="36" font-weight="700" fill="#FAFAF9">Dashboard</text><text x="1537.5" y="215" text-anchor="middle" font-family="Kalam" font-size="26" font-weight="400" fill="#A8A29E">Gantt · feed</text><text x="1537.5" y="253" text-anchor="middle" font-family="Kalam" font-size="26" font-weight="400" fill="#A8A29E">alerts · SSE</text><g><path d="M1688.1353476259546 215.8693104586987 C1693.8906805440881 216.0395590999052, 1705.8943871250094 212.38918378066256, 1712.0903402366823 214.9315674698487 M1686.785353671537 215.15191435255798 C1696.4423216437592 216.31947553823613, 1705.2260342552981 214.44248248949881, 1711.983575961937 216.05023482035637" stroke="#C2410C" stroke-width="2.6" fill="none"></path></g><g><path d="M1701.1497414869514 223.59989217972313 C1705.8542261477335 221.2179232374811, 1710.0905627262603 216.403682689794, 1714.7875528056502 215.72557502248023 M1701.6045755700045 222.7022963349596 C1705.0969932489659 220.28039595842375, 1707.4450992897707 218.41946387902516, 1714.1179828472305 214.4730893385802 M1713.069908675484 213.4360410166856 C1708.9319256229012 211.340904674401, 1703.3738918550912 209.6631669988876, 1700.050000316985 207.7443871790119 M1714.0399404805714 215.76905672822465 C1708.9696304912343 212.11998775057106, 1704.6579327620025 209.35699012433412, 1701.8181013649926 206.91176524369868" stroke="#C2410C" stroke-width="2.3" fill="none"></path></g><g><path d="M1716.97656127543 90.76728401423809 L2005.5421551803279 91.07668915468724 L2004.7859789356867 338.4908263381109 L1715.129891442476 341.139005636383" stroke="none" stroke-width="0" fill="#E8F5D8"></path><path d="M1715.0123815217523 91.30234175436918 C1811.2323184100455 93.03553394485759, 1911.3915983115596 92.08008515550834, 2008.5961578112563 90.56119074638268 M1718.3289277907093 89.26870684717932 C1832.9675086315613 89.23086161260264, 1947.0217016165095 90.4283132319034, 2007.241940366633 89.93243845293678 M2006.151499031438 91.50686074759412 C2007.3071969688306 181.73233798738718, 2004.8673084395582 273.19144438693917, 2005.3756821888917 341.29717721483365 M2007.364532319182 90.06465728815282 C2011.618724544478 142.40608572263795, 2010.1074259233492 194.73496623444015, 2006.2722283911694 338.93291043712526 M2006.8336010546861 338.6919938590854 C1905.2651587935673 341.69654301743736, 1807.8966942175941 345.46634195972774, 1717.6769318281067 340.15294039005323 M2007.5320090255686 340.68084604889594 C1919.537402193997 340.0205734059723, 1832.5992706941597 339.9433016662614, 1718.5726815284647 339.2775661670396 M1718.5434529769614 342.63108432592713 C1722.6941503584412 259.2097125467835, 1719.8807058187697 180.80725859709716, 1718.728976831453 91.3520305687949 M1718.2425160067028 339.2044292377425 C1719.3960766095252 276.3757054006557, 1719.0914506574488 213.5715944105923, 1718.0158077678009 89.71563573690773" stroke="#3F6212" stroke-width="3" fill="none"></path></g><text x="1862.5" y="155" text-anchor="middle" font-family="Kalam" font-size="36" font-weight="700" fill="#1C1917">Human gate</text><text x="1862.5" y="215" text-anchor="middle" font-family="Kalam" font-size="26" font-weight="400" fill="#57534E">super / PM</text><text x="1862.5" y="253" text-anchor="middle" font-family="Kalam" font-size="26" font-weight="400" fill="#57534E">reply to crew</text><g><path d="M741.8603158130728 407.03862328436634 L1358.552337568592 409.49138348983166 L1353.5107286507603 567.8551705654711 L742.6171338286658 572.8529371159548" stroke="none" stroke-width="0" fill="#FFFFFF"></path><path d="M742.2695538933638 409.27489758784674 C889.3233183298307 408.87987039441754, 1032.9985487686317 406.8121956742696, 1357.612128047657 409.3914759817843 M742.5000957662039 409.54159009796797 C888.5510213543106 413.11643471397633, 1034.906479086415 412.4924125021362, 1357.943575208673 409.87926067027223 M1353.6117818833263 406.89906375783016 C1358.2494180566434 466.9587314026986, 1360.7711109708982 525.0799354895395, 1354.1603048709153 566.9324885676064 M1359.248044639231 408.14154469908357 C1361.0070029719604 453.6286310168938, 1359.9944156655968 498.76850083753493, 1356.3157868089186 569.6580198006669 M1358.4395315262072 569.5907866898934 C1146.6240216254714 566.7784724505061, 937.258393727119 568.0108722192737, 742.9747969118858 568.9226540998508 M1357.6071575024043 570.190641781404 C1155.3818301602778 576.4765326353712, 951.7694174538371 576.6996274060408, 742.2712520801838 570.4400328354502 M739.4682242185838 568.6677313242579 C737.1117383637095 522.0669064991043, 735.3842273566463 469.25679987975457, 739.8088553294828 406.4176848863531 M741.3821774443667 568.167996024754 C746.9605752626707 514.4126044660931, 748.6608098055038 458.83087841833964, 743.7554520331358 408.8794252746328" stroke="#78716C" stroke-width="2.5" fill="none"></path></g><text x="1050" y="470" text-anchor="middle" font-family="Kalam" font-size="34" font-weight="700" fill="#1C1917">Memory</text><text x="1050" y="525" text-anchor="middle" font-family="Kalam" font-size="28" font-weight="400" fill="#57534E">site context · project context</text><g><path d="M1051.5707696470524 408.8787757351632 C1051.339000391008 387.5297024875386, 1048.4968796963308 371.3628607230978, 1050.6933435104902 345.1598969962256 M1048.847137457904 409.6562374456349 C1047.8625598469225 394.20435536526395, 1048.169891667332 379.5036373206517, 1051.4314222411542 349.0538811444158" stroke="#78716C" stroke-width="2.5" fill="none" stroke-dasharray="8 8"></path></g><g><path d="M1375.6856376819803 408.25728791401355 L2030.0350789320844 412.1283180359359 L2026.479510010533 728.7452111448882 L1370.3113321515855 727.9002746657202" stroke="none" stroke-width="0" fill="#1C1917"></path><path d="M1372.306307650503 409.1338388036302 C1599.815597714116 410.7018910493145, 1828.487703124182 410.95808407525266, 2026.3026256829817 409.08879385809 M1371.882321608571 410.2188431769643 C1572.9390212553892 404.45531288271513, 1772.2115215795122 404.68316181088977, 2027.4359057755798 410.0160828051351 M2028.5863966450272 412.168907402449 C2030.7955443813573 513.4560661188847, 2028.8868649201304 618.9121663734269, 2028.4213488020812 730.6849400006503 M2027.6790283532716 411.01530397709195 C2031.6060431937321 522.5696538444031, 2031.5125506644113 633.0273204640622, 2026.6412581515108 730.4308746858427 M2026.7604139672826 731.3541934719435 C1890.6302540277497 730.5391656360689, 1753.6387551699443 732.9022408563524, 1372.7839626216796 730.8173658146798 M2027.7009814891353 729.6165138748214 C1790.6862291624675 735.761576188963, 1553.9066582928333 735.6740461429914, 1373.1423089144037 729.5172695920936 M1371.9398966680908 731.2574305248913 C1366.7273148750642 630.0164964805097, 1368.2031460913322 532.6399620621272, 1372.0988046071302 407.9025141009915 M1372.517659043637 729.0449322806912 C1374.4582770066531 635.7516979264387, 1372.5553437445944 541.059585452714, 1371.7883334085843 409.6339405530604" stroke="#1C1917" stroke-width="2.5" fill="none"></path></g><text x="1700" y="470" text-anchor="middle" font-family="Kalam" font-size="34" font-weight="700" fill="#FAFAF9">Model slots</text><text x="1422.5" y="530" text-anchor="start" font-family="Kalam" font-size="28" font-weight="400" fill="#FDBA74">•  Whisper STT</text><text x="1422.5" y="575" text-anchor="start" font-family="Kalam" font-size="28" font-weight="400" fill="#FDBA74">•  Tool-calling LLM</text><text x="1422.5" y="620" text-anchor="start" font-family="Kalam" font-size="28" font-weight="400" fill="#FDBA74">•  VLM on photos</text><text x="1422.5" y="665" text-anchor="start" font-family="Kalam" font-size="28" font-weight="400" fill="#FDBA74">•  RAG drawings / specs</text></svg>